<svg version="1" xmlns="http://www.w3.org/2000/svg" width="26.096" height="33.803" viewBox="0 0 26.096 33.803"><path d="M13.047 0L0 1.456V25.93l13.047 7.836v.037l13.05-7.872V1.56L13.047 0zm10.99 24.745l-10.99 6.622v-7.385L6.68 21.124v-.02l6.372-2.817v-.02h.002v.01l6.365 2.815v-.006l.01.006v-1.234l-6.37-2.813-.003.003-.007-.003v.01-.002L6.68 19.87v-1.235l5.85-2.585-1.387-.62-4.46 1.97v-1.234l3.078-1.36-1.384-.622-1.692.748V13.7l.307-.135-3.73-1.675 9.794-4.248V2.084l10.99 1.32v21.34z"/><path d="M19.428 17.39l-4.47-1.977-1.388.622 5.858 2.59m0-3.705l-1.694-.747-1.388.62 3.082 1.362"/></svg>