<svg version="1" xmlns="http://www.w3.org/2000/svg" width="25.988" height="29.922" viewBox="0 0 25.988 29.922"><path d="M0 0h25.988v29.922l-12.994-4.81L0 29.92V0zm20.154 17.895c-.24 0-.51-.006-.8-.018-.294-.014-.51-.05-.646-.116-.225-.1-.39-.26-.5-.463-.107-.21-.162-.492-.162-.854 0-.394.018-1.21.055-2.457.04-1.243.06-2.317.06-3.225 0-.857-.146-1.555-.44-2.09-.293-.533-.687-.94-1.185-1.22-.52-.29-1.107-.48-1.76-.57-.647-.095-1.363-.14-2.14-.14-.563 0-1.173.066-1.83.197-.66.134-1.24.32-1.747.562-.513.232-.948.527-1.305.884s-.535.76-.535 1.21c0 .52.175.946.52 1.27.347.324.858.487 1.534.487.476 0 .827-.042 1.057-.13.23-.09.437-.213.62-.374.14-.12.24-.28.314-.484.07-.203.11-.373.11-.51 0-.306-.06-.62-.17-.95-.113-.33-.182-.574-.206-.735.145-.105.335-.208.572-.31.235-.1.53-.15.884-.15.395 0 .71.09.953.266.24.18.416.395.53.653.103.225.17.5.204.83.03.328.05.594.05.796v1.15c-.47.225-1.206.48-2.22.767-1.013.283-1.88.56-2.604.823-.377.144-.725.3-1.043.47-.315.17-.595.38-.837.64-.266.28-.47.605-.615.97-.145.366-.216.81-.216 1.33 0 .91.33 1.64.99 2.19.658.55 1.455.827 2.387.827.63 0 1.117-.043 1.467-.13.35-.09.714-.224 1.09-.397.29-.14.56-.305.815-.496.254-.194.518-.427.79-.7h.07c.17.546.486.965.95 1.26.466.292 1.19.437 2.177.437.537 0 1.046-.062 1.526-.19s.897-.27 1.25-.42v-.88zm-6.02-1.302c-.218.265-.47.487-.755.668-.29.19-.65.277-1.1.277-.42 0-.77-.14-1.057-.42-.287-.282-.43-.738-.43-1.363 0-.475.084-.89.254-1.24.17-.347.403-.636.7-.86.282-.22.645-.425 1.09-.622.44-.196.89-.37 1.34-.524l-.05 4.09z"/></svg>