<?xml version="1.0" encoding="UTF-8" ?>
<!DOCTYPE svg PUBLIC "-//W3C//DTD SVG 1.1//EN" "http://www.w3.org/Graphics/SVG/1.1/DTD/svg11.dtd">
<svg width="14pt" height="9pt" viewBox="0 0 14 9" version="1.1" xmlns="http://www.w3.org/2000/svg">
<path fill="#8a8a8a" d=" M 0.00 0.00 L 0.95 0.00 C 2.84 2.25 4.51 4.67 6.22 7.06 C 8.58 4.78 10.79 2.36 13.05 0.00 L 14.00 0.00 L 14.00 0.84 C 11.75 3.64 8.98 6.00 6.97 9.00 L 5.98 9.00 C 3.95 6.45 2.11 3.75 0.00 1.26 L 0.00 0.00 Z" />
<path fill="#333333" d=" M 0.95 0.00 L 13.05 0.00 C 10.79 2.36 8.58 4.78 6.22 7.06 C 4.51 4.67 2.84 2.25 0.95 0.00 Z" />
<path fill="#333333" d=" M 0.00 1.26 C 2.11 3.75 3.95 6.45 5.98 9.00 L 0.00 9.00 L 0.00 1.26 Z" />
<path fill="#333333" d=" M 6.97 9.00 C 8.98 6.00 11.75 3.64 14.00 0.84 L 14.00 9.00 L 6.97 9.00 Z" />
</svg>
